<?xml version="1.0" encoding="UTF-8" standalone="no"?>
<!DOCTYPE svg PUBLIC "-//W3C//DTD SVG 1.1//EN" "http://www.w3.org/Graphics/SVG/1.1/DTD/svg11.dtd">

<!-- Created with Vectornator (http://vectornator.io/) -->
<svg height="100%" stroke-miterlimit="10" style="fill-rule:nonzero;clip-rule:evenodd;stroke-linecap:round;stroke-linejoin:round;" version="1.1" viewBox="0 0 512 512" width="100%" xml:space="preserve" xmlns="http://www.w3.org/2000/svg" xmlns:vectornator="http://vectornator.io" xmlns:xlink="http://www.w3.org/1999/xlink">
<metadata>
<vectornator:setting key="IsTimeLapseWatermarkDisabled" value="false"/>
<vectornator:setting key="UndoHistoryDisabled" value="true"/>
<vectornator:setting key="VNDimensionsVisible" value="true"/>
<vectornator:setting key="VNSnapToGuides" value="true"/>
<vectornator:setting key="WDCMYKEnabledKey" value="false"/>
<vectornator:setting key="WDDisplayWhiteBackground" value="false"/>
<vectornator:setting key="WDDynamicGuides" value="false"/>
<vectornator:setting key="WDGuidesVisible" value="true"/>
<vectornator:setting key="WDIsolateActiveLayer" value="false"/>
<vectornator:setting key="WDOutlineMode" value="false"/>
<vectornator:setting key="WDRulersVisible" value="true"/>
<vectornator:setting key="WDSnapToEdges" value="false"/>
<vectornator:setting key="WDSnapToGrid" value="false"/>
<vectornator:setting key="WDSnapToPoints" value="false"/>
<vectornator:setting key="WDUnits" value="Pixels"/>
</metadata>
<defs/>
<g id="Layer-1" vectornator:layerName="Layer 1">
<g opacity="1">
<path d="M89.2738 171.706C89.2738 76.9728 161.668 0.175748 250.967 0.175748C340.266 0.175748 412.66 76.9728 412.66 171.706C412.66 266.44 340.266 343.237 250.967 343.237C161.668 343.237 89.2738 266.44 89.2738 171.706Z" fill="#734bb7" fill-rule="evenodd" opacity="1" stroke="none"/>
<path d="M-0.27933 340.598C-0.27933 245.864 72.1145 169.067 161.414 169.067C250.713 169.067 323.107 245.864 323.107 340.598C323.107 435.332 250.713 512.128 161.414 512.128C72.1145 512.128-0.27933 435.332-0.27933 340.598Z" fill="#bff27e" fill-rule="evenodd" opacity="1" stroke="none" vectornator:blendMode="screen"/>
<path d="M188.777 340.598C188.777 245.864 261.171 169.067 350.47 169.067C439.77 169.067 512.164 245.864 512.164 340.598C512.164 435.332 439.77 512.128 350.47 512.128C261.171 512.128 188.777 435.332 188.777 340.598Z" fill="#e6acdc" fill-rule="evenodd" opacity="1" stroke="none" vectornator:blendMode="screen"/>
</g>
</g>
</svg>
