<svg width="210" height="40" viewBox="0 0 450 100" fill="none" xmlns="http://www.w3.org/2000/svg">
<circle cx="50.5" cy="32.5" r="32.5" fill="#734BB7"/>
<g style="mix-blend-mode:screen">
<circle cx="32.5" cy="64.5" r="32.5" fill="#BFF27E"/>
</g>
<g style="mix-blend-mode:screen">
<circle cx="70.5" cy="64.5" r="32.5" fill="#E6ACDC"/>
</g>
<path d="M137.6 11.304C141.152 11.304 144.256 12.008 146.912 13.416C149.568 14.824 151.616 16.808 153.056 19.368C154.528 21.896 155.264 24.824 155.264 28.152C155.264 31.448 154.528 34.376 153.056 36.936C151.616 39.496 149.552 41.48 146.864 42.888C144.208 44.296 141.12 45 137.6 45H124.976V11.304H137.6ZM137.072 37.896C140.176 37.896 142.592 37.048 144.32 35.352C146.048 33.656 146.912 31.256 146.912 28.152C146.912 25.048 146.048 22.632 144.32 20.904C142.592 19.176 140.176 18.312 137.072 18.312H133.184V37.896H137.072ZM185.531 22.152C185.531 24.104 185.083 25.896 184.187 27.528C183.291 29.128 181.915 30.424 180.059 31.416C178.203 32.408 175.899 32.904 173.147 32.904H168.059V45H159.851V11.304H173.147C175.835 11.304 178.107 11.768 179.963 12.696C181.819 13.624 183.211 14.904 184.139 16.536C185.067 18.168 185.531 20.04 185.531 22.152ZM172.523 26.376C174.091 26.376 175.259 26.008 176.027 25.272C176.795 24.536 177.179 23.496 177.179 22.152C177.179 20.808 176.795 19.768 176.027 19.032C175.259 18.296 174.091 17.928 172.523 17.928H168.059V26.376H172.523ZM210.78 39.048H198.204L196.188 45H187.596L199.788 11.304H209.292L221.484 45H212.796L210.78 39.048ZM208.668 32.712L204.492 20.376L200.364 32.712H208.668ZM137.6 56.304C141.152 56.304 144.256 57.008 146.912 58.416C149.568 59.824 151.616 61.808 153.056 64.368C154.528 66.896 155.264 69.824 155.264 73.152C155.264 76.448 154.528 79.376 153.056 81.936C151.616 84.496 149.552 86.48 146.864 87.888C144.208 89.296 141.12 90 137.6 90H124.976V56.304H137.6ZM137.072 82.896C140.176 82.896 142.592 82.048 144.32 80.352C146.048 78.656 146.912 76.256 146.912 73.152C146.912 70.048 146.048 67.632 144.32 65.904C142.592 64.176 140.176 63.312 137.072 63.312H133.184V82.896H137.072ZM168.059 62.88V69.696H179.051V76.032H168.059V83.424H180.491V90H159.851V56.304H180.491V62.88H168.059ZM217.452 56.304L205.5 90H195.228L183.276 56.304H192.012L200.364 81.744L208.764 56.304H217.452ZM229.09 62.88V69.696H240.082V76.032H229.09V83.424H241.522V90H220.882V56.304H241.522V62.88H229.09ZM255.059 83.664H265.811V90H246.851V56.304H255.059V83.664ZM285.662 90.336C282.494 90.336 279.582 89.6 276.926 88.128C274.302 86.656 272.206 84.608 270.638 81.984C269.102 79.328 268.334 76.352 268.334 73.056C268.334 69.76 269.102 66.8 270.638 64.176C272.206 61.552 274.302 59.504 276.926 58.032C279.582 56.56 282.494 55.824 285.662 55.824C288.83 55.824 291.726 56.56 294.35 58.032C297.006 59.504 299.086 61.552 300.59 64.176C302.126 66.8 302.894 69.76 302.894 73.056C302.894 76.352 302.126 79.328 300.59 81.984C299.054 84.608 296.974 86.656 294.35 88.128C291.726 89.6 288.83 90.336 285.662 90.336ZM285.662 82.848C288.35 82.848 290.494 81.952 292.094 80.16C293.726 78.368 294.542 76 294.542 73.056C294.542 70.08 293.726 67.712 292.094 65.952C290.494 64.16 288.35 63.264 285.662 63.264C282.942 63.264 280.766 64.144 279.134 65.904C277.534 67.664 276.734 70.048 276.734 73.056C276.734 76.032 277.534 78.416 279.134 80.208C280.766 81.968 282.942 82.848 285.662 82.848ZM333.14 67.152C333.14 69.104 332.692 70.896 331.796 72.528C330.9 74.128 329.524 75.424 327.668 76.416C325.812 77.408 323.508 77.904 320.756 77.904H315.668V90H307.46V56.304H320.756C323.444 56.304 325.716 56.768 327.572 57.696C329.428 58.624 330.82 59.904 331.748 61.536C332.676 63.168 333.14 65.04 333.14 67.152ZM320.132 71.376C321.7 71.376 322.868 71.008 323.636 70.272C324.404 69.536 324.788 68.496 324.788 67.152C324.788 65.808 324.404 64.768 323.636 64.032C322.868 63.296 321.7 62.928 320.132 62.928H315.668V71.376H320.132ZM375.574 56.304V90H367.366V69.792L359.83 90H353.206L345.622 69.744V90H337.414V56.304H347.109L356.566 79.632L365.926 56.304H375.574ZM389.684 62.88V69.696H400.676V76.032H389.684V83.424H402.116V90H381.476V56.304H402.116V62.88H389.684ZM437.589 90H429.381L415.653 69.216V90H407.445V56.304H415.653L429.381 77.184V56.304H437.589V90ZM467.779 56.304V62.88H458.851V90H450.643V62.88H441.715V56.304H467.779Z" fill="white"/>
</svg>
